<svg width="163" height="53" viewBox="0 0 163 53" fill="none" xmlns="http://www.w3.org/2000/svg">
<rect x="0.5" y="0.5" width="162" height="52" rx="11.5" fill="#3E444E" stroke="#25272D"/>
<path d="M43.6403 30.2033C43.4092 29.8979 43.0862 29.6715 42.7119 29.564L42.6994 29.5611C42.5398 29.5164 42.3541 29.4859 42.1627 29.4774H42.1569C41.9538 29.466 41.7517 29.4669 41.5486 29.4669H37.5355L32.2314 20.1736C31.5573 20.8681 31.0903 21.7634 30.9326 22.7595L30.9288 22.7871C30.8862 23.0421 30.862 23.337 30.862 23.6367C30.862 24.6357 31.1318 25.5728 31.6028 26.3815L31.5883 26.3549L37.9619 37.5225C38.0635 37.7004 38.164 37.8783 38.2752 38.0495C38.3787 38.2132 38.4918 38.354 38.6185 38.4834L38.6176 38.4824C38.8835 38.7488 39.2355 38.9305 39.6291 38.9848L39.6387 38.9857C39.7064 38.9952 39.7857 39 39.865 39C40.1928 39 40.4984 38.9106 40.7595 38.7555L40.7518 38.7602C41.0893 38.5595 41.3494 38.2627 41.4973 37.9097L41.5022 37.8983C41.5892 37.6937 41.6395 37.4549 41.6395 37.2056C41.6395 37.0449 41.6182 36.8879 41.5795 36.7395L41.5824 36.7528C41.5293 36.5549 41.4616 36.3836 41.3765 36.2219L41.3832 36.2362C41.2923 36.0525 41.1898 35.8756 41.0883 35.6986L39.6184 33.1232H41.5467C41.7497 33.1232 41.9519 33.1241 42.154 33.1127C42.3503 33.1041 42.5359 33.0737 42.7129 33.0252L42.6955 33.029C43.0823 32.9177 43.4062 32.6912 43.6335 32.3906L43.6364 32.3858C43.8636 32.0852 44 31.7065 44 31.2974C44 30.8883 43.8636 30.5087 43.6325 30.2033L43.6364 30.2081L43.6403 30.2033ZM18.7627 33.7768L17.8053 35.5607C17.7067 35.7452 17.6071 35.9289 17.5172 36.1201C17.4408 36.2733 17.374 36.4521 17.3267 36.6377L17.3228 36.6567C17.287 36.7984 17.2667 36.9611 17.2667 37.1276C17.2667 37.3864 17.316 37.6347 17.4059 37.8621L17.4011 37.8478C17.5462 38.2237 17.8015 38.5319 18.1273 38.7412L18.1341 38.746C18.3797 38.903 18.6795 38.9962 19.0025 38.9962C19.0808 38.9962 19.1572 38.9905 19.2317 38.98L19.223 38.981C19.6214 38.921 19.9666 38.7317 20.22 38.4586L20.2209 38.4577C20.3438 38.3255 20.455 38.178 20.5488 38.0201L20.5555 38.0077C20.6648 37.8288 20.7625 37.6442 20.8621 37.4597L22.2507 34.8719C21.7169 34.0917 20.8234 33.5856 19.809 33.5856C19.4328 33.5856 19.0731 33.655 18.7424 33.7825L18.7627 33.7768ZM25.6459 29.4698L33.0301 16.348C33.1316 16.1682 33.2332 15.9893 33.3251 15.8028C33.4034 15.6535 33.4711 15.4794 33.5194 15.2976L33.5233 15.2796C33.56 15.1416 33.5803 14.9837 33.5803 14.82C33.5803 14.567 33.5301 14.3263 33.4382 14.1055L33.443 14.1179C33.2922 13.7488 33.0311 13.4481 32.7013 13.2483L32.6936 13.2436C32.4402 13.0904 32.1346 13 31.8068 13C31.7275 13 31.6492 13.0057 31.5718 13.0162L31.5805 13.0152C31.1773 13.0714 30.8243 13.2559 30.5603 13.5242C30.4346 13.6536 30.3215 13.7982 30.2248 13.9524L30.218 13.9638C30.1068 14.1379 30.0062 14.3177 29.9047 14.4975L29.4376 15.3271L28.9706 14.4975C28.869 14.3177 28.7694 14.1369 28.6582 13.9638C28.5547 13.7982 28.4416 13.6546 28.3149 13.5242L28.3159 13.5252C28.0519 13.2559 27.6999 13.0714 27.3053 13.0162L27.2957 13.0152C27.228 13.0057 27.1497 13.001 27.0704 13.001C26.7425 13.001 26.436 13.0913 26.1759 13.2483L26.1836 13.2445C25.8461 13.4491 25.585 13.7497 25.438 14.1065L25.4332 14.1189C25.3462 14.3272 25.2959 14.5679 25.2959 14.821C25.2959 14.9837 25.3171 15.1426 25.3558 15.2929L25.3529 15.2796C25.4061 15.4794 25.4738 15.6535 25.5589 15.8181L25.5521 15.8028C25.643 15.9884 25.7455 16.1682 25.8471 16.348L27.3556 19.0281L21.48 29.4698H17.4533C17.2512 29.4698 17.0482 29.4688 16.846 29.4812C16.6497 29.4898 16.4641 29.5202 16.2871 29.5706L16.3045 29.5668C15.9167 29.68 15.5938 29.9093 15.3675 30.2138L15.3636 30.2185C15.1363 30.5239 15 30.9073 15 31.3212C15 31.7351 15.1363 32.1185 15.3675 32.4296L15.3636 32.4239C15.5928 32.7331 15.9158 32.9624 16.291 33.0718L16.3035 33.0746C16.4631 33.1203 16.6488 33.1508 16.8393 33.1593H16.8451C17.0472 33.1707 17.2503 33.1698 17.4524 33.1698H33.2796C33.3231 33.0813 33.3637 32.9748 33.3966 32.8644L33.4005 32.8492C33.4759 32.618 33.5194 32.3516 33.5194 32.0757C33.5194 30.6609 32.3735 29.5088 30.9452 29.4688H30.9413L25.6459 29.4698Z" fill="white"/>
<path d="M78.202 16.545C78.04 16.233 77.815 15.999 77.527 15.843C77.239 15.681 76.906 15.6 76.528 15.6C76.114 15.6 75.745 15.693 75.421 15.879C75.097 16.065 74.842 16.329 74.656 16.671C74.476 17.013 74.386 17.409 74.386 17.859C74.386 18.309 74.476 18.708 74.656 19.056C74.842 19.398 75.097 19.662 75.421 19.848C75.745 20.034 76.114 20.127 76.528 20.127C77.086 20.127 77.539 19.971 77.887 19.659C78.235 19.347 78.448 18.924 78.526 18.39H76.177V17.571H79.624V18.372C79.558 18.858 79.384 19.305 79.102 19.713C78.826 20.121 78.463 20.448 78.013 20.694C77.569 20.934 77.074 21.054 76.528 21.054C75.94 21.054 75.403 20.919 74.917 20.649C74.431 20.373 74.044 19.992 73.756 19.506C73.474 19.02 73.333 18.471 73.333 17.859C73.333 17.247 73.474 16.698 73.756 16.212C74.044 15.726 74.431 15.348 74.917 15.078C75.409 14.802 75.946 14.664 76.528 14.664C77.194 14.664 77.785 14.829 78.301 15.159C78.823 15.483 79.201 15.945 79.435 16.545H78.202ZM85.1809 18.399C85.1809 18.585 85.1689 18.753 85.1449 18.903H81.3559C81.3859 19.299 81.5329 19.617 81.7969 19.857C82.0609 20.097 82.3849 20.217 82.7689 20.217C83.3209 20.217 83.7109 19.986 83.9389 19.524H85.0459C84.8959 19.98 84.6229 20.355 84.2269 20.649C83.8369 20.937 83.3509 21.081 82.7689 21.081C82.2949 21.081 81.8689 20.976 81.4909 20.766C81.1189 20.55 80.8249 20.25 80.6089 19.866C80.3989 19.476 80.2939 19.026 80.2939 18.516C80.2939 18.006 80.3959 17.559 80.5999 17.175C80.8099 16.785 81.1009 16.485 81.4729 16.275C81.8509 16.065 82.2829 15.96 82.7689 15.96C83.2369 15.96 83.6539 16.062 84.0199 16.266C84.3859 16.47 84.6709 16.758 84.8749 17.13C85.0789 17.496 85.1809 17.919 85.1809 18.399ZM84.1099 18.075C84.1039 17.697 83.9689 17.394 83.7049 17.166C83.4409 16.938 83.1139 16.824 82.7239 16.824C82.3699 16.824 82.0669 16.938 81.8149 17.166C81.5629 17.388 81.4129 17.691 81.3649 18.075H84.1099ZM87.3876 16.878V19.623C87.3876 19.809 87.4296 19.944 87.5136 20.028C87.6036 20.106 87.7536 20.145 87.9636 20.145H88.5936V21H87.7836C87.3216 21 86.9676 20.892 86.7216 20.676C86.4756 20.46 86.3526 20.109 86.3526 19.623V16.878H85.7676V16.041H86.3526V14.808H87.3876V16.041H88.5936V16.878H87.3876ZM94.0281 21.081C93.5601 21.081 93.1371 20.976 92.7591 20.766C92.3811 20.55 92.0841 20.25 91.8681 19.866C91.6521 19.476 91.5441 19.026 91.5441 18.516C91.5441 18.012 91.6551 17.565 91.8771 17.175C92.0991 16.785 92.4021 16.485 92.7861 16.275C93.1701 16.065 93.5991 15.96 94.0731 15.96C94.5471 15.96 94.9761 16.065 95.3601 16.275C95.7441 16.485 96.0471 16.785 96.2691 17.175C96.4911 17.565 96.6021 18.012 96.6021 18.516C96.6021 19.02 96.4881 19.467 96.2601 19.857C96.0321 20.247 95.7201 20.55 95.3241 20.766C94.9341 20.976 94.5021 21.081 94.0281 21.081ZM94.0281 20.19C94.2921 20.19 94.5381 20.127 94.7661 20.001C95.0001 19.875 95.1891 19.686 95.3331 19.434C95.4771 19.182 95.5491 18.876 95.5491 18.516C95.5491 18.156 95.4801 17.853 95.3421 17.607C95.2041 17.355 95.0211 17.166 94.7931 17.04C94.5651 16.914 94.3191 16.851 94.0551 16.851C93.7911 16.851 93.5451 16.914 93.3171 17.04C93.0951 17.166 92.9181 17.355 92.7861 17.607C92.6541 17.853 92.5881 18.156 92.5881 18.516C92.5881 19.05 92.7231 19.464 92.9931 19.758C93.2691 20.046 93.6141 20.19 94.0281 20.19ZM100.118 15.96C100.508 15.96 100.856 16.041 101.162 16.203C101.474 16.365 101.717 16.605 101.891 16.923C102.065 17.241 102.152 17.625 102.152 18.075V21H101.135V18.228C101.135 17.784 101.024 17.445 100.802 17.211C100.58 16.971 100.277 16.851 99.8934 16.851C99.5094 16.851 99.2034 16.971 98.9754 17.211C98.7534 17.445 98.6424 17.784 98.6424 18.228V21H97.6164V16.041H98.6424V16.608C98.8104 16.404 99.0234 16.245 99.2814 16.131C99.5454 16.017 99.8244 15.96 100.118 15.96ZM78.964 37.404H75.628L75.076 39H73.312L76.324 30.612H78.28L81.292 39H79.516L78.964 37.404ZM78.508 36.06L77.296 32.556L76.084 36.06H78.508ZM84.0978 33.312C84.3138 33.008 84.6098 32.756 84.9858 32.556C85.3698 32.348 85.8058 32.244 86.2938 32.244C86.8618 32.244 87.3738 32.384 87.8298 32.664C88.2938 32.944 88.6578 33.344 88.9218 33.864C89.1938 34.376 89.3298 34.972 89.3298 35.652C89.3298 36.332 89.1938 36.936 88.9218 37.464C88.6578 37.984 88.2938 38.388 87.8298 38.676C87.3738 38.964 86.8618 39.108 86.2938 39.108C85.8058 39.108 85.3738 39.008 84.9978 38.808C84.6298 38.608 84.3298 38.356 84.0978 38.052V42.168H82.4178V32.352H84.0978V33.312ZM87.6138 35.652C87.6138 35.252 87.5298 34.908 87.3618 34.62C87.2018 34.324 86.9858 34.1 86.7138 33.948C86.4498 33.796 86.1618 33.72 85.8498 33.72C85.5458 33.72 85.2578 33.8 84.9858 33.96C84.7218 34.112 84.5058 34.336 84.3378 34.632C84.1778 34.928 84.0978 35.276 84.0978 35.676C84.0978 36.076 84.1778 36.424 84.3378 36.72C84.5058 37.016 84.7218 37.244 84.9858 37.404C85.2578 37.556 85.5458 37.632 85.8498 37.632C86.1618 37.632 86.4498 37.552 86.7138 37.392C86.9858 37.232 87.2018 37.004 87.3618 36.708C87.5298 36.412 87.6138 36.06 87.6138 35.652ZM92.2307 33.312C92.4467 33.008 92.7427 32.756 93.1187 32.556C93.5027 32.348 93.9387 32.244 94.4267 32.244C94.9947 32.244 95.5067 32.384 95.9627 32.664C96.4267 32.944 96.7907 33.344 97.0547 33.864C97.3267 34.376 97.4627 34.972 97.4627 35.652C97.4627 36.332 97.3267 36.936 97.0547 37.464C96.7907 37.984 96.4267 38.388 95.9627 38.676C95.5067 38.964 94.9947 39.108 94.4267 39.108C93.9387 39.108 93.5067 39.008 93.1307 38.808C92.7627 38.608 92.4627 38.356 92.2307 38.052V42.168H90.5507V32.352H92.2307V33.312ZM95.7467 35.652C95.7467 35.252 95.6627 34.908 95.4947 34.62C95.3347 34.324 95.1187 34.1 94.8467 33.948C94.5827 33.796 94.2947 33.72 93.9827 33.72C93.6787 33.72 93.3907 33.8 93.1187 33.96C92.8547 34.112 92.6387 34.336 92.4707 34.632C92.3107 34.928 92.2307 35.276 92.2307 35.676C92.2307 36.076 92.3107 36.424 92.4707 36.72C92.6387 37.016 92.8547 37.244 93.1187 37.404C93.3907 37.556 93.6787 37.632 93.9827 37.632C94.2947 37.632 94.5827 37.552 94.8467 37.392C95.1187 37.232 95.3347 37.004 95.4947 36.708C95.6627 36.412 95.7467 36.06 95.7467 35.652ZM104.435 39.084C103.851 39.084 103.323 38.984 102.851 38.784C102.387 38.584 102.019 38.296 101.747 37.92C101.475 37.544 101.335 37.1 101.327 36.588H103.127C103.151 36.932 103.271 37.204 103.487 37.404C103.711 37.604 104.015 37.704 104.399 37.704C104.791 37.704 105.099 37.612 105.323 37.428C105.547 37.236 105.659 36.988 105.659 36.684C105.659 36.436 105.583 36.232 105.431 36.072C105.279 35.912 105.087 35.788 104.855 35.7C104.631 35.604 104.319 35.5 103.919 35.388C103.375 35.228 102.931 35.072 102.587 34.92C102.251 34.76 101.959 34.524 101.711 34.212C101.471 33.892 101.351 33.468 101.351 32.94C101.351 32.444 101.475 32.012 101.723 31.644C101.971 31.276 102.319 30.996 102.767 30.804C103.215 30.604 103.727 30.504 104.303 30.504C105.167 30.504 105.867 30.716 106.403 31.14C106.947 31.556 107.247 32.14 107.303 32.892H105.455C105.439 32.604 105.315 32.368 105.083 32.184C104.859 31.992 104.559 31.896 104.183 31.896C103.855 31.896 103.591 31.98 103.391 32.148C103.199 32.316 103.103 32.56 103.103 32.88C103.103 33.104 103.175 33.292 103.319 33.444C103.471 33.588 103.655 33.708 103.871 33.804C104.095 33.892 104.407 33.996 104.807 34.116C105.351 34.276 105.795 34.436 106.139 34.596C106.483 34.756 106.779 34.996 107.027 35.316C107.275 35.636 107.399 36.056 107.399 36.576C107.399 37.024 107.283 37.44 107.051 37.824C106.819 38.208 106.479 38.516 106.031 38.748C105.583 38.972 105.051 39.084 104.435 39.084ZM110.811 33.732V36.948C110.811 37.172 110.863 37.336 110.967 37.44C111.079 37.536 111.263 37.584 111.519 37.584H112.299V39H111.243C109.827 39 109.119 38.312 109.119 36.936V33.732H108.327V32.352H109.119V30.708H110.811V32.352H112.299V33.732H110.811ZM116.46 39.108C115.82 39.108 115.244 38.968 114.732 38.688C114.22 38.4 113.816 37.996 113.52 37.476C113.232 36.956 113.088 36.356 113.088 35.676C113.088 34.996 113.236 34.396 113.532 33.876C113.836 33.356 114.248 32.956 114.768 32.676C115.288 32.388 115.868 32.244 116.508 32.244C117.148 32.244 117.728 32.388 118.248 32.676C118.768 32.956 119.176 33.356 119.472 33.876C119.776 34.396 119.928 34.996 119.928 35.676C119.928 36.356 119.772 36.956 119.46 37.476C119.156 37.996 118.74 38.4 118.212 38.688C117.692 38.968 117.108 39.108 116.46 39.108ZM116.46 37.644C116.764 37.644 117.048 37.572 117.312 37.428C117.584 37.276 117.8 37.052 117.96 36.756C118.12 36.46 118.2 36.1 118.2 35.676C118.2 35.044 118.032 34.56 117.696 34.224C117.368 33.88 116.964 33.708 116.484 33.708C116.004 33.708 115.6 33.88 115.272 34.224C114.952 34.56 114.792 35.044 114.792 35.676C114.792 36.308 114.948 36.796 115.26 37.14C115.58 37.476 115.98 37.644 116.46 37.644ZM122.84 33.384C123.056 33.032 123.336 32.756 123.68 32.556C124.032 32.356 124.432 32.256 124.88 32.256V34.02H124.436C123.908 34.02 123.508 34.144 123.236 34.392C122.972 34.64 122.84 35.072 122.84 35.688V39H121.16V32.352H122.84V33.384ZM132.192 35.532C132.192 35.772 132.176 35.988 132.144 36.18H127.284C127.324 36.66 127.492 37.036 127.788 37.308C128.084 37.58 128.448 37.716 128.88 37.716C129.504 37.716 129.948 37.448 130.212 36.912H132.024C131.832 37.552 131.464 38.08 130.92 38.496C130.376 38.904 129.708 39.108 128.916 39.108C128.276 39.108 127.7 38.968 127.188 38.688C126.684 38.4 126.288 37.996 126 37.476C125.72 36.956 125.58 36.356 125.58 35.676C125.58 34.988 125.72 34.384 126 33.864C126.28 33.344 126.672 32.944 127.176 32.664C127.68 32.384 128.26 32.244 128.916 32.244C129.548 32.244 130.112 32.38 130.608 32.652C131.112 32.924 131.5 33.312 131.772 33.816C132.052 34.312 132.192 34.884 132.192 35.532ZM130.452 35.052C130.444 34.62 130.288 34.276 129.984 34.02C129.68 33.756 129.308 33.624 128.868 33.624C128.452 33.624 128.1 33.752 127.812 34.008C127.532 34.256 127.36 34.604 127.296 35.052H130.452Z" fill="white"/>
<path d="M58 17V35" stroke="#4D545F" stroke-width="0.5" stroke-linecap="round"/>
</svg>
