<svg width="163" height="53" viewBox="0 0 163 53" fill="none" xmlns="http://www.w3.org/2000/svg">
<rect x="0.5" y="0.5" width="162" height="52" rx="11.5" fill="#3E444E" stroke="#25272D"/>
<mask id="mask0_208_201" style="mask-type:alpha" maskUnits="userSpaceOnUse" x="16" y="13" width="27" height="27">
<path d="M41.0729 24.8389C42.4018 25.5639 42.4018 27.436 41.0729 28.1611L19.8186 39.7569C18.5243 40.463 16.9316 39.5466 16.9316 38.0957V14.9043C16.9316 13.4534 18.5243 12.537 19.8186 13.2432L41.0729 24.8389Z" fill="#C4C4C4"/>
</mask>
<g mask="url(#mask0_208_201)">
<path d="M17.5965 39.5293L30.8542 26.3111L17.8148 13.3105C17.2946 13.6412 16.9316 14.212 16.9316 14.9047V38.0961C16.9316 38.6871 17.1958 39.1893 17.5965 39.5293Z" fill="url(#paint0_linear_208_201)"/>
<path d="M41.0721 24.8389C42.4011 25.5639 42.4011 27.436 41.0721 28.161L35.7101 31.0865L30.8535 26.3106L35.4625 21.7783L41.0721 24.8389Z" fill="url(#paint1_linear_208_201)"/>
<path d="M35.7101 31.0863L30.8535 26.3105L17.5957 39.5288C18.1787 40.0237 19.0507 40.1752 19.8179 39.7566L35.7101 31.0863Z" fill="url(#paint2_linear_208_201)"/>
<path d="M17.8145 13.3101L30.8538 26.3107L35.4628 21.7784L19.8182 13.2432C19.1418 12.8741 18.3839 12.9482 17.8145 13.3101Z" fill="url(#paint3_linear_208_201)"/>
</g>
<path d="M75.202 16.545C75.04 16.233 74.815 15.999 74.527 15.843C74.239 15.681 73.906 15.6 73.528 15.6C73.114 15.6 72.745 15.693 72.421 15.879C72.097 16.065 71.842 16.329 71.656 16.671C71.476 17.013 71.386 17.409 71.386 17.859C71.386 18.309 71.476 18.708 71.656 19.056C71.842 19.398 72.097 19.662 72.421 19.848C72.745 20.034 73.114 20.127 73.528 20.127C74.086 20.127 74.539 19.971 74.887 19.659C75.235 19.347 75.448 18.924 75.526 18.39H73.177V17.571H76.624V18.372C76.558 18.858 76.384 19.305 76.102 19.713C75.826 20.121 75.463 20.448 75.013 20.694C74.569 20.934 74.074 21.054 73.528 21.054C72.94 21.054 72.403 20.919 71.917 20.649C71.431 20.373 71.044 19.992 70.756 19.506C70.474 19.02 70.333 18.471 70.333 17.859C70.333 17.247 70.474 16.698 70.756 16.212C71.044 15.726 71.431 15.348 71.917 15.078C72.409 14.802 72.946 14.664 73.528 14.664C74.194 14.664 74.785 14.829 75.301 15.159C75.823 15.483 76.201 15.945 76.435 16.545H75.202ZM82.1809 18.399C82.1809 18.585 82.1689 18.753 82.1449 18.903H78.3559C78.3859 19.299 78.5329 19.617 78.7969 19.857C79.0609 20.097 79.3849 20.217 79.7689 20.217C80.3209 20.217 80.7109 19.986 80.9389 19.524H82.0459C81.8959 19.98 81.6229 20.355 81.2269 20.649C80.8369 20.937 80.3509 21.081 79.7689 21.081C79.2949 21.081 78.8689 20.976 78.4909 20.766C78.1189 20.55 77.8249 20.25 77.6089 19.866C77.3989 19.476 77.2939 19.026 77.2939 18.516C77.2939 18.006 77.3959 17.559 77.5999 17.175C77.8099 16.785 78.1009 16.485 78.4729 16.275C78.8509 16.065 79.2829 15.96 79.7689 15.96C80.2369 15.96 80.6539 16.062 81.0199 16.266C81.3859 16.47 81.6709 16.758 81.8749 17.13C82.0789 17.496 82.1809 17.919 82.1809 18.399ZM81.1099 18.075C81.1039 17.697 80.9689 17.394 80.7049 17.166C80.4409 16.938 80.1139 16.824 79.7239 16.824C79.3699 16.824 79.0669 16.938 78.8149 17.166C78.5629 17.388 78.4129 17.691 78.3649 18.075H81.1099ZM84.3876 16.878V19.623C84.3876 19.809 84.4296 19.944 84.5136 20.028C84.6036 20.106 84.7536 20.145 84.9636 20.145H85.5936V21H84.7836C84.3216 21 83.9676 20.892 83.7216 20.676C83.4756 20.46 83.3526 20.109 83.3526 19.623V16.878H82.7676V16.041H83.3526V14.808H84.3876V16.041H85.5936V16.878H84.3876ZM91.0281 21.081C90.5601 21.081 90.1371 20.976 89.7591 20.766C89.3811 20.55 89.0841 20.25 88.8681 19.866C88.6521 19.476 88.5441 19.026 88.5441 18.516C88.5441 18.012 88.6551 17.565 88.8771 17.175C89.0991 16.785 89.4021 16.485 89.7861 16.275C90.1701 16.065 90.5991 15.96 91.0731 15.96C91.5471 15.96 91.9761 16.065 92.3601 16.275C92.7441 16.485 93.0471 16.785 93.2691 17.175C93.4911 17.565 93.6021 18.012 93.6021 18.516C93.6021 19.02 93.4881 19.467 93.2601 19.857C93.0321 20.247 92.7201 20.55 92.3241 20.766C91.9341 20.976 91.5021 21.081 91.0281 21.081ZM91.0281 20.19C91.2921 20.19 91.5381 20.127 91.7661 20.001C92.0001 19.875 92.1891 19.686 92.3331 19.434C92.4771 19.182 92.5491 18.876 92.5491 18.516C92.5491 18.156 92.4801 17.853 92.3421 17.607C92.2041 17.355 92.0211 17.166 91.7931 17.04C91.5651 16.914 91.3191 16.851 91.0551 16.851C90.7911 16.851 90.5451 16.914 90.3171 17.04C90.0951 17.166 89.9181 17.355 89.7861 17.607C89.6541 17.853 89.5881 18.156 89.5881 18.516C89.5881 19.05 89.7231 19.464 89.9931 19.758C90.2691 20.046 90.6141 20.19 91.0281 20.19ZM97.1184 15.96C97.5084 15.96 97.8564 16.041 98.1624 16.203C98.4744 16.365 98.7174 16.605 98.8914 16.923C99.0654 17.241 99.1524 17.625 99.1524 18.075V21H98.1354V18.228C98.1354 17.784 98.0244 17.445 97.8024 17.211C97.5804 16.971 97.2774 16.851 96.8934 16.851C96.5094 16.851 96.2034 16.971 95.9754 17.211C95.7534 17.445 95.6424 17.784 95.6424 18.228V21H94.6164V16.041H95.6424V16.608C95.8104 16.404 96.0234 16.245 96.2814 16.131C96.5454 16.017 96.8244 15.96 97.1184 15.96ZM76.66 33.144C76.468 32.792 76.204 32.524 75.868 32.34C75.532 32.156 75.14 32.064 74.692 32.064C74.196 32.064 73.756 32.176 73.372 32.4C72.988 32.624 72.688 32.944 72.472 33.36C72.256 33.776 72.148 34.256 72.148 34.8C72.148 35.36 72.256 35.848 72.472 36.264C72.696 36.68 73.004 37 73.396 37.224C73.788 37.448 74.244 37.56 74.764 37.56C75.404 37.56 75.928 37.392 76.336 37.056C76.744 36.712 77.012 36.236 77.14 35.628H74.26V34.344H78.796V35.808C78.684 36.392 78.444 36.932 78.076 37.428C77.708 37.924 77.232 38.324 76.648 38.628C76.072 38.924 75.424 39.072 74.704 39.072C73.896 39.072 73.164 38.892 72.508 38.532C71.86 38.164 71.348 37.656 70.972 37.008C70.604 36.36 70.42 35.624 70.42 34.8C70.42 33.976 70.604 33.24 70.972 32.592C71.348 31.936 71.86 31.428 72.508 31.068C73.164 30.7 73.892 30.516 74.692 30.516C75.636 30.516 76.456 30.748 77.152 31.212C77.848 31.668 78.328 32.312 78.592 33.144H76.66ZM82.9909 39.108C82.3509 39.108 81.7749 38.968 81.2629 38.688C80.7509 38.4 80.3469 37.996 80.0509 37.476C79.7629 36.956 79.6189 36.356 79.6189 35.676C79.6189 34.996 79.7669 34.396 80.0629 33.876C80.3669 33.356 80.7789 32.956 81.2989 32.676C81.8189 32.388 82.3989 32.244 83.0389 32.244C83.6789 32.244 84.2589 32.388 84.7789 32.676C85.2989 32.956 85.7069 33.356 86.0029 33.876C86.3069 34.396 86.4589 34.996 86.4589 35.676C86.4589 36.356 86.3029 36.956 85.9909 37.476C85.6869 37.996 85.2709 38.4 84.7429 38.688C84.2229 38.968 83.6389 39.108 82.9909 39.108ZM82.9909 37.644C83.2949 37.644 83.5789 37.572 83.8429 37.428C84.1149 37.276 84.3309 37.052 84.4909 36.756C84.6509 36.46 84.7309 36.1 84.7309 35.676C84.7309 35.044 84.5629 34.56 84.2269 34.224C83.8989 33.88 83.4949 33.708 83.0149 33.708C82.5349 33.708 82.1309 33.88 81.8029 34.224C81.4829 34.56 81.3229 35.044 81.3229 35.676C81.3229 36.308 81.4789 36.796 81.7909 37.14C82.1109 37.476 82.5109 37.644 82.9909 37.644ZM90.6433 39.108C90.0033 39.108 89.4273 38.968 88.9153 38.688C88.4033 38.4 87.9993 37.996 87.7033 37.476C87.4153 36.956 87.2713 36.356 87.2713 35.676C87.2713 34.996 87.4193 34.396 87.7153 33.876C88.0193 33.356 88.4313 32.956 88.9513 32.676C89.4713 32.388 90.0513 32.244 90.6913 32.244C91.3313 32.244 91.9113 32.388 92.4313 32.676C92.9513 32.956 93.3593 33.356 93.6553 33.876C93.9593 34.396 94.1113 34.996 94.1113 35.676C94.1113 36.356 93.9553 36.956 93.6433 37.476C93.3393 37.996 92.9233 38.4 92.3953 38.688C91.8753 38.968 91.2913 39.108 90.6433 39.108ZM90.6433 37.644C90.9473 37.644 91.2313 37.572 91.4953 37.428C91.7673 37.276 91.9833 37.052 92.1433 36.756C92.3033 36.46 92.3833 36.1 92.3833 35.676C92.3833 35.044 92.2153 34.56 91.8793 34.224C91.5513 33.88 91.1473 33.708 90.6673 33.708C90.1873 33.708 89.7833 33.88 89.4553 34.224C89.1353 34.56 88.9753 35.044 88.9753 35.676C88.9753 36.308 89.1313 36.796 89.4433 37.14C89.7633 37.476 90.1633 37.644 90.6433 37.644ZM97.9476 32.244C98.4436 32.244 98.8796 32.344 99.2556 32.544C99.6316 32.736 99.9276 32.988 100.144 33.3V32.352H101.836V39.048C101.836 39.664 101.712 40.212 101.464 40.692C101.216 41.18 100.844 41.564 100.348 41.844C99.8516 42.132 99.2516 42.276 98.5476 42.276C97.6036 42.276 96.8276 42.056 96.2196 41.616C95.6196 41.176 95.2796 40.576 95.1996 39.816H96.8676C96.9556 40.12 97.1436 40.36 97.4316 40.536C97.7276 40.72 98.0836 40.812 98.4996 40.812C98.9876 40.812 99.3836 40.664 99.6876 40.368C99.9916 40.08 100.144 39.64 100.144 39.048V38.016C99.9276 38.328 99.6276 38.588 99.2436 38.796C98.8676 39.004 98.4356 39.108 97.9476 39.108C97.3876 39.108 96.8756 38.964 96.4116 38.676C95.9476 38.388 95.5796 37.984 95.3076 37.464C95.0436 36.936 94.9116 36.332 94.9116 35.652C94.9116 34.98 95.0436 34.384 95.3076 33.864C95.5796 33.344 95.9436 32.944 96.3996 32.664C96.8636 32.384 97.3796 32.244 97.9476 32.244ZM100.144 35.676C100.144 35.268 100.064 34.92 99.9036 34.632C99.7436 34.336 99.5276 34.112 99.2556 33.96C98.9836 33.8 98.6916 33.72 98.3796 33.72C98.0676 33.72 97.7796 33.796 97.5156 33.948C97.2516 34.1 97.0356 34.324 96.8676 34.62C96.7076 34.908 96.6276 35.252 96.6276 35.652C96.6276 36.052 96.7076 36.404 96.8676 36.708C97.0356 37.004 97.2516 37.232 97.5156 37.392C97.7876 37.552 98.0756 37.632 98.3796 37.632C98.6916 37.632 98.9836 37.556 99.2556 37.404C99.5276 37.244 99.7436 37.02 99.9036 36.732C100.064 36.436 100.144 36.084 100.144 35.676ZM105.156 30.12V39H103.476V30.12H105.156ZM112.996 35.532C112.996 35.772 112.98 35.988 112.948 36.18H108.088C108.128 36.66 108.296 37.036 108.592 37.308C108.888 37.58 109.252 37.716 109.684 37.716C110.308 37.716 110.752 37.448 111.016 36.912H112.828C112.636 37.552 112.268 38.08 111.724 38.496C111.18 38.904 110.512 39.108 109.72 39.108C109.08 39.108 108.504 38.968 107.992 38.688C107.488 38.4 107.092 37.996 106.804 37.476C106.524 36.956 106.384 36.356 106.384 35.676C106.384 34.988 106.524 34.384 106.804 33.864C107.084 33.344 107.476 32.944 107.98 32.664C108.484 32.384 109.064 32.244 109.72 32.244C110.352 32.244 110.916 32.38 111.412 32.652C111.916 32.924 112.304 33.312 112.576 33.816C112.856 34.312 112.996 34.884 112.996 35.532ZM111.256 35.052C111.248 34.62 111.092 34.276 110.788 34.02C110.484 33.756 110.112 33.624 109.672 33.624C109.256 33.624 108.904 33.752 108.616 34.008C108.336 34.256 108.164 34.604 108.1 35.052H111.256ZM123.19 33.216C123.19 33.664 123.082 34.084 122.866 34.476C122.658 34.868 122.326 35.184 121.87 35.424C121.422 35.664 120.854 35.784 120.166 35.784H118.762V39H117.082V30.624H120.166C120.814 30.624 121.366 30.736 121.822 30.96C122.278 31.184 122.618 31.492 122.842 31.884C123.074 32.276 123.19 32.72 123.19 33.216ZM120.094 34.428C120.558 34.428 120.902 34.324 121.126 34.116C121.35 33.9 121.462 33.6 121.462 33.216C121.462 32.4 121.006 31.992 120.094 31.992H118.762V34.428H120.094ZM126.063 30.12V39H124.383V30.12H126.063ZM127.291 35.652C127.291 34.98 127.423 34.384 127.687 33.864C127.959 33.344 128.323 32.944 128.779 32.664C129.243 32.384 129.759 32.244 130.327 32.244C130.823 32.244 131.255 32.344 131.623 32.544C131.999 32.744 132.299 32.996 132.523 33.3V32.352H134.215V39H132.523V38.028C132.307 38.34 132.007 38.6 131.623 38.808C131.247 39.008 130.811 39.108 130.315 39.108C129.755 39.108 129.243 38.964 128.779 38.676C128.323 38.388 127.959 37.984 127.687 37.464C127.423 36.936 127.291 36.332 127.291 35.652ZM132.523 35.676C132.523 35.268 132.443 34.92 132.283 34.632C132.123 34.336 131.907 34.112 131.635 33.96C131.363 33.8 131.071 33.72 130.759 33.72C130.447 33.72 130.159 33.796 129.895 33.948C129.631 34.1 129.415 34.324 129.247 34.62C129.087 34.908 129.007 35.252 129.007 35.652C129.007 36.052 129.087 36.404 129.247 36.708C129.415 37.004 129.631 37.232 129.895 37.392C130.167 37.552 130.455 37.632 130.759 37.632C131.071 37.632 131.363 37.556 131.635 37.404C131.907 37.244 132.123 37.02 132.283 36.732C132.443 36.436 132.523 36.084 132.523 35.676ZM142.215 32.352L138.099 42.144H136.311L137.751 38.832L135.087 32.352H136.971L138.687 36.996L140.427 32.352H142.215Z" fill="white"/>
<path d="M56 17V35" stroke="#4D545F" stroke-width="0.5" stroke-linecap="round"/>
<defs>
<linearGradient id="paint0_linear_208_201" x1="26.0199" y1="21.1771" x2="17.0841" y2="30.2641" gradientUnits="userSpaceOnUse">
<stop stop-color="#00C3FF"/>
<stop offset="1" stop-color="#1BE2FA"/>
</linearGradient>
<linearGradient id="paint1_linear_208_201" x1="30.8535" y1="26.3107" x2="42.8423" y2="26.3107" gradientUnits="userSpaceOnUse">
<stop stop-color="#FFCE00"/>
<stop offset="1" stop-color="#FFEA00"/>
</linearGradient>
<linearGradient id="paint2_linear_208_201" x1="17.3177" y1="41.1424" x2="33.1579" y2="28.3334" gradientUnits="userSpaceOnUse">
<stop stop-color="#DE2453"/>
<stop offset="1" stop-color="#FE3944"/>
</linearGradient>
<linearGradient id="paint3_linear_208_201" x1="18.0915" y1="11.8591" x2="33.1639" y2="24.2762" gradientUnits="userSpaceOnUse">
<stop stop-color="#11D574"/>
<stop offset="1" stop-color="#01F176"/>
</linearGradient>
</defs>
</svg>
