<svg width="80" height="80" viewBox="0 0 512 512" fill="none" xmlns="http://www.w3.org/2000/svg">
<path d="M0 200C0 89.5431 89.5431 0 200 0H312C422.457 0 512 89.5431 512 200V312C512 422.457 422.457 512 312 512H200C89.5431 512 0 422.457 0 312V200Z" fill="white"/>
<path d="M134 256V201.699C134 134.28 181.695 106.672 240.057 140.381L287.143 167.532L334.229 194.682C392.59 228.392 392.59 283.608 334.229 317.318L287.143 344.468L240.057 371.619C181.695 405.328 134 377.72 134 310.301V256Z" fill="black"/>
</svg>
