<svg width="36" height="36" viewBox="0 0 36 36" fill="none" xmlns="http://www.w3.org/2000/svg">
<path d="M32.9998 19.29C32.9998 22.725 31.2298 25.77 28.4998 27.69L26.4898 32.115C26.0248 33.12 24.6748 33.315 23.9698 32.46L21.7498 29.79C18.9598 29.79 16.3948 28.845 14.4448 27.27L15.3448 26.205C22.2748 25.68 27.7498 20.19 27.7498 13.5C27.7498 12.36 27.5848 11.235 27.2848 10.155C30.6898 11.955 32.9998 15.375 32.9998 19.29Z" fill="white"/>
<path d="M24.45 9.105C22.695 5.505 18.78 3 14.25 3C8.04 3 3 7.695 3 13.5C3 16.935 4.77 19.98 7.5 21.9L9.51 26.325C9.975 27.33 11.325 27.51 12.03 26.67L12.855 25.68L14.25 24C20.46 24 25.5 19.305 25.5 13.5C25.5 11.925 25.125 10.44 24.45 9.105ZM18 14.625H10.5C9.885 14.625 9.375 14.115 9.375 13.5C9.375 12.885 9.885 12.375 10.5 12.375H18C18.615 12.375 19.125 12.885 19.125 13.5C19.125 14.115 18.615 14.625 18 14.625Z" fill="white"/>
</svg>
