<svg width="36" height="36" viewBox="0 0 36 36" fill="none" xmlns="http://www.w3.org/2000/svg">
<path d="M24 2.95508H12C6 2.95508 3 5.95508 3 11.9551V19.4551C3 26.9551 6 28.4551 12 28.4551H12.75C13.17 28.4551 13.71 28.7251 13.95 29.0551L16.2 32.0551C17.19 33.3751 18.81 33.3751 19.8 32.0551L22.05 29.0551C22.335 28.6801 22.785 28.4551 23.25 28.4551H24C30 28.4551 33 25.4551 33 19.4551V11.9551C33 5.95508 30 2.95508 24 2.95508ZM12.795 18.2551C13.23 18.6901 13.23 19.4101 12.795 19.8451C12.57 20.0701 12.285 20.1751 12 20.1751C11.715 20.1751 11.43 20.0701 11.205 19.8451L8.205 16.8451C7.77 16.4101 7.77 15.6901 8.205 15.2551L11.205 12.2551C11.64 11.8201 12.36 11.8201 12.795 12.2551C13.23 12.6901 13.23 13.4101 12.795 13.8451L10.59 16.0501L12.795 18.2551ZM20.535 12.9901L17.535 19.9951C17.355 20.4151 16.935 20.6701 16.5 20.6701C16.35 20.6701 16.2 20.6401 16.05 20.5801C15.48 20.3401 15.21 19.6801 15.465 19.0951L18.465 12.0901C18.705 11.5201 19.365 11.2501 19.95 11.5051C20.52 11.7601 20.775 12.4201 20.535 12.9901ZM27.795 16.8451L24.795 19.8451C24.57 20.0701 24.285 20.1751 24 20.1751C23.715 20.1751 23.43 20.0701 23.205 19.8451C22.77 19.4101 22.77 18.6901 23.205 18.2551L25.41 16.0501L23.205 13.8451C22.77 13.4101 22.77 12.6901 23.205 12.2551C23.64 11.8201 24.36 11.8201 24.795 12.2551L27.795 15.2551C28.23 15.6901 28.23 16.4101 27.795 16.8451Z" fill="white"/>
</svg>
