<svg width="314" height="109" viewBox="0 0 314 109" fill="none" xmlns="http://www.w3.org/2000/svg">
<path d="M79.0036 68.732C73.8829 76.4383 66.4183 82.2923 57.7136 85.4285C49.0089 88.5647 39.526 88.8166 30.667 86.1471C21.8081 83.4775 14.0432 78.0282 8.52051 70.6047C2.99782 63.1812 0.0104291 54.1777 2.72561e-05 44.9252C-0.0103746 35.6728 2.95676 26.6625 8.46275 19.2267C13.9687 11.7908 21.7213 6.32402 30.5743 3.63456C39.4272 0.945104 48.9106 1.17574 57.6224 4.29236C66.3341 7.40899 73.8118 13.2462 78.9498 20.9409L64.685 30.706C61.6335 26.0535 57.1612 22.5108 51.9339 20.6051C46.7065 18.6993 41.0035 18.5324 35.6737 20.1293C30.3438 21.7261 25.672 25.0012 22.3537 29.4673C19.0353 33.9333 17.2477 39.3515 17.257 44.9154C17.2662 50.4793 19.0718 55.8915 22.405 60.3465C25.7382 64.8014 30.4209 68.061 35.756 69.6401C41.0912 71.2192 46.7936 71.0333 52.0145 69.1102C57.2355 67.1871 61.696 63.6295 64.732 58.9669L79.0036 68.732Z" fill="#1C1D21"/>
<path d="M97.813 0V86.744H81.1641V5.581L97.813 0Z" fill="#1C1D21"/>
<path d="M148.773 57.1745C148.773 55.9786 148.922 54.7874 149.217 53.6284V60.7205C148.922 59.5616 148.773 58.3703 148.773 57.1745Z" fill="#1C1D21"/>
<path d="M123.777 24.6406V86.7436H107.121V29.8724L123.777 24.6406Z" fill="#1C1D21"/>
<path d="M163.232 26.5015C159.204 26.4997 155.215 27.2919 151.493 28.8328C147.771 30.3736 144.39 32.633 141.542 35.4816C138.694 38.3302 136.435 41.7122 134.895 45.4342C133.355 49.1563 132.564 53.1454 132.566 57.1735V102.634L149.215 108.323V84.4606C153.344 86.5797 157.899 87.7344 162.538 87.8379C167.177 87.9413 171.78 86.9908 175.998 85.0578C180.217 83.1249 183.942 80.2599 186.893 76.6787C189.844 73.0976 191.944 68.8935 193.035 64.3831C194.125 59.8727 194.178 55.1737 193.19 50.6398C192.202 46.1059 190.197 41.8554 187.328 38.2084C184.459 34.5614 180.799 31.613 176.626 29.5851C172.452 27.5573 167.872 26.5029 163.232 26.5015ZM163.232 71.633C160.372 71.633 157.576 70.785 155.198 69.1962C152.821 67.6073 150.967 65.3491 149.873 62.7069C148.778 60.0648 148.492 57.1574 149.05 54.3526C149.608 51.5477 150.985 48.9712 153.007 46.949C155.029 44.9268 157.606 43.5497 160.411 42.9917C163.216 42.4338 166.123 42.7202 168.765 43.8146C171.407 44.909 173.666 46.7623 175.254 49.1402C176.843 51.518 177.691 54.3136 177.691 57.1735C177.692 59.0726 177.319 60.9532 176.592 62.708C175.866 64.4627 174.801 66.057 173.458 67.3999C172.115 68.7428 170.521 69.8078 168.766 70.5342C167.011 71.2605 165.131 71.6339 163.232 71.633Z" fill="#1C1D21"/>
<path d="M255.317 2.84814V19.3897H217.197V86.7445H200.004V2.84814H255.317Z" fill="#4E6EF2"/>
<path d="M115.442 20.6188C120.038 20.6188 123.763 16.8933 123.763 12.2977C123.763 7.70206 120.038 3.97656 115.442 3.97656C110.847 3.97656 107.121 7.70206 107.121 12.2977C107.121 16.8933 110.847 20.6188 115.442 20.6188Z" fill="#4E6EF2"/>
<path d="M234.79 54.6818C239.386 54.6818 243.111 50.9563 243.111 46.3607C243.111 41.765 239.386 38.0396 234.79 38.0396C230.194 38.0396 226.469 41.765 226.469 46.3607C226.469 50.9563 230.194 54.6818 234.79 54.6818Z" fill="#1C1D21"/>
<path d="M313.513 26.8916L291.941 80.9823L291.894 81.1099L281.075 108.256H263.486L274.386 80.9085L250.598 26.8916H268.267L282.74 59.9612L295.924 26.8916H313.513Z" fill="#4E6EF2"/>
<path d="M291.999 81.1041L291.891 81.1108L291.938 80.9824L291.999 81.1041Z" fill="#1C1D21"/>
</svg>
